<svg aria-hidden="true" focusable="false" role="img" xmlns="http://www.w3.org/2000/svg" viewBox="0 0 32 32" width="32" height="32"><defs><linearGradient id="a" x1="7.641" y1="7.053" x2="24.533" y2="36.312" gradientUnits="userSpaceOnUse"><stop offset=".001" stop-color="#2a479c"/><stop offset="1" stop-color="#13115c"/></linearGradient><linearGradient id="b" x1="13.756" y1="-2.56" x2="33.412" y2="31.486" gradientUnits="userSpaceOnUse"><stop offset=".001" stop-color="#fff"/><stop offset="1" stop-color="#feecda"/></linearGradient><linearGradient id="c" x1="13.578" y1="26.756" x2="26.288" y2="4.743" gradientUnits="userSpaceOnUse"><stop offset=".001" stop-color="#ff8900"/><stop offset="1" stop-color="#b50000"/></linearGradient><symbol id="d" viewBox="0 0 34 36"><path d="M28.625 0H7.281C3.312 0 0 2.5 0 5.375V32a4 4 0 0 0 4 4h22a4 4 0 0 0 4-4l2-2.555c1.19-.693 2-1.968 2-3.445V5.375C34 2.312 31.719 0 28.625 0Z" fill="#13115c"/><path d="M24.335 8H6v28h18a4 4 0 0 0 4-4V11.665C28 9.456 26.544 8 24.335 8Z" fill="url(#a)"/><path d="M28 2H8.438C6.125 2 4.832 2.309 4 3.25c-.176.2-.305.465-.379.75H27a3 3 0 0 1 3 3v25a3.97 3.97 0 0 1-.36 1.64A3.995 3.995 0 0 0 32 30V6a4 4 0 0 0-4-4Z" fill="url(#b)"/><path d="M27 4H3.621C3.388 4.895 3.72 6 5 6h21a4 4 0 0 1 4 4V7a3 3 0 0 0-3-3Z" fill="#fff"/><path d="M15 27a1.002 1.002 0 0 0 1.832.555L20 22.803l3.168 4.752A1 1 0 0 0 25 27V4H15v23Z" fill="url(#c)"/></symbol></defs><path fill="none" d="M0 0h16v16H0z"/><use width="34" height="36" transform="scale(.9412 .8889)" href="#d"/></svg>
